PathFileType	4	(X/Y/Z)	D:\Share\Shared_Data\Ergonomics\Sit To Stand Pertubation\S1\Unperturbed_NoHarness.trc
DataRate	CameraRate	NumFrames	NumMarkers	Units	OrigDataRate	OrigDataStartFrame	OrigNumFrames	
100	100	11	18	m	100	355	211
Frame#	Time	R_Thigh_Med			R_ASIS			R_Pelvis			V_Sacral			L_Pelvis			L_ASIS			Clavical			R_Acromium			L_Acromium			Sternum			Torso			R_Thigh_Lat			R_Thigh			R_Shank_Med			R_Shank_Lat			R_Shank			R_Heel			R_Toe			
		X1	Y1	Z1	X2	Y2	Z2	X3	Y3	Z3	X4	Y4	Z4	X5	Y5	Z5	X6	Y6	Z6	X7	Y7	Z7	X8	Y8	Z8	X9	Y9	Z9	X10	Y10	Z10	X11	Y11	Z11	X12	Y12	Z12	X13	Y13	Z13	X14	Y14	Z14	X15	Y15	Z15	X16	Y16	Z16	X17	Y17	Z17	X18	Y18	Z18	

355	3.54	0.31853772	0.42519388	0.01909815	0.4547233	0.89646729	0.082212822	0.37343036	0.9088595	0.12592747	0.28342609	0.90109979	-0.025236465	0.38067624	0.90545135	-0.17675319	0.46856064	0.90364948	-0.11678711	0.43140494	1.2514609	-0.026557737	0.36386987	1.3189958	0.12293546	0.32731812	1.2651262	-0.22413477	0.41601379	1.2635618	0.076040108	0.42823138	1.2558522	-0.086854561	0.34630209	0.44107681	0.15569534	0.44053586	0.59983136	0.095266121	0.31299335	0.10243568	0.070459801	0.2892446	0.10044833	0.15098029	0.3089437	0.31163431	0.17182545	0.2440871	0.032538528	0.091897896	0.44948474	0.045124741	0.11806887
356	3.55	0.31837326	0.42521948	0.019113773	0.45455426	0.89644043	0.082240425	0.37327383	0.90878143	0.12591526	0.28328973	0.90096313	-0.025280966	0.38061011	0.90537427	-0.17675293	0.4684617	0.90362756	-0.11674731	0.4309248	1.2513156	-0.026441614	0.36334119	1.3188256	0.12301458	0.32713559	1.2649452	-0.22397794	0.41549835	1.2634229	0.076143105	0.42779962	1.2557469	-0.086728012	0.34617902	0.4410918	0.15578275	0.44038449	0.59978815	0.095285995	0.31295627	0.10239635	0.070466995	0.2892193	0.10038934	0.15099609	0.30884573	0.31157544	0.17185553	0.24408026	0.032518215	0.091901283	0.44948657	0.045132137	0.11806591
357	3.56	0.31823105	0.4252334	0.019138702	0.45435577	0.89642548	0.082273933	0.37308481	0.90872437	0.12590654	0.28312796	0.90085608	-0.025324196	0.38052948	0.90531158	-0.17675537	0.46834332	0.90361127	-0.11670152	0.43047787	1.2511978	-0.026329758	0.36283429	1.3186785	0.12308837	0.32682346	1.2649674	-0.22411388	0.41500626	1.2633075	0.076244637	0.42739047	1.2556619	-0.086602699	0.34605014	0.44111148	0.15586694	0.44021738	0.59975922	0.09531514	0.31292169	0.10236313	0.070476624	0.28919205	0.10033714	0.15101233	0.30874768	0.31152075	0.17188947	0.24407335	0.0324981	0.091905464	0.44948828	0.045139492	0.11806355
358	3.57	0.31810803	0.42523999	0.019164806	0.45412671	0.89642224	0.082313354	0.3728576	0.90868652	0.12590371	0.28294547	0.90077869	-0.025366409	0.38043213	0.90526331	-0.17675798	0.4682056	0.90360046	-0.11664947	0.43006586	1.2511078	-0.026224277	0.36235034	1.318556	0.12315511	0.32641562	1.2651626	-0.22448805	0.41453839	1.2632148	0.076342865	0.42700693	1.2555979	-0.086479507	0.34591687	0.44112946	0.15593875	0.44003708	0.59974438	0.095351379	0.31289001	0.10233362	0.070486313	0.28916345	0.10028948	0.15102673	0.30865213	0.31146909	0.17192509	0.24406613	0.032477673	0.091910057	0.44949023	0.0451451	0.1180622
359	3.58	0.31800098	0.42524146	0.019184427	0.45386621	0.89642993	0.082358658	0.37259091	0.90866284	0.12590879	0.28274573	0.90072766	-0.025408628	0.38031647	0.90522809	-0.17675829	0.46804886	0.90359497	-0.1165908	0.42968777	1.2510436	-0.026126177	0.36189059	1.3184581	0.12321387	0.32592996	1.265517	-0.22507532	0.41409543	1.2631427	0.076436958	0.42664993	1.2555555	-0.086358521	0.34577975	0.44114188	0.15599167	0.43984521	0.59974261	0.09539267	0.31286136	0.10230535	0.070493996	0.28913373	0.10024383	0.15103732	0.30856009	0.31141943	0.17195947	0.24405833	0.032456596	0.091914558	0.44949316	0.045147156	0.11806203
360	3.59	0.31790714	0.42523749	0.019193239	0.45357477	0.89644678	0.082410011	0.37228751	0.90864832	0.12592269	0.28253018	0.90069611	-0.025452545	0.3801824	0.90520349	-0.17675426	0.46787396	0.90359473	-0.11652513	0.429341	1.2509991	-0.026034988	0.36145688	1.3183833	0.12326461	0.32539053	1.266004	-0.22583221	0.41367838	1.2630881	0.076526886	0.42631931	1.2555322	-0.086239655	0.34563864	0.44114737	0.15602362	0.43964252	0.59975262	0.095437759	0.31283533	0.1022763	0.070498367	0.289103	0.10019805	0.15104274	0.30847052	0.31137143	0.17198967	0.24404982	0.032434734	0.091918541	0.44949701	0.045144875	0.11806308
361	3.6	0.3178244	0.42522568	0.019191608	0.45325589	0.89647021	0.082467926	0.37195325	0.90863812	0.12594439	0.28229868	0.90067529	-0.025500004	0.38003183	0.90518622	-0.17674434	0.46768253	0.90359991	-0.1164522	0.42902325	1.2509661	-0.025949108	0.36105173	1.3183303	0.12330801	0.32484299	1.2665631	-0.22666571	0.41328833	1.2630459	0.076612793	0.42601495	1.2555233	-0.086123207	0.34549271	0.44114603	0.15603629	0.43942911	0.5997724	0.095486481	0.31281137	0.10224493	0.070499222	0.28907108	0.10015094	0.15104279	0.30838126	0.31132526	0.1720134	0.2440405	0.032411987	0.091921684	0.44950134	0.045138653	0.1180652
362	3.61	0.31775085	0.42520273	0.019183546	0.45291574	0.89649738	0.082533356	0.37159436	0.90862897	0.12597137	0.28205029	0.90065594	-0.02555196	0.37986777	0.90517303	-0.17672787	0.46747705	0.90361029	-0.11637195	0.42873291	1.2509353	-0.02586655	0.36067773	1.3182959	0.12334542	0.32434921	1.2671061	-0.22744446	0.41292538	1.2630114	0.076694557	0.42573709	1.2555217	-0.086010002	0.345341	0.44113779	0.15603404	0.43920526	0.5997995	0.095539642	0.3127883	0.10221034	0.07049736	0.2890372	0.10010235	0.15103841	0.3082901	0.31128128	0.17202991	0.24403056	0.032388039	0.091923782	0.4495058	0.045129459	0.11806759
363	3.62	0.3176842	0.42516644	0.019174099	0.45256128	0.89652539	0.082607346	0.37121512	0.90861823	0.12600097	0.28178546	0.90062976	-0.025608301	0.37969351	0.90516058	-0.1767049	0.46726056	0.90362543	-0.11628456	0.42846851	1.2508994	-0.02578569	0.36033588	1.318277	0.12337854	0.32398242	1.2675254	-0.22800778	0.41258832	1.2629797	0.076771881	0.42548544	1.2555204	-0.085901039	0.34518268	0.44112115	0.15602251	0.43897195	0.59983099	0.095598503	0.31276483	0.10217209	0.070494347	0.28900018	0.10005316	0.15103128	0.30819525	0.31123972	0.17203992	0.24402031	0.032362373	0.09192485	0.44951056	0.045118073	0.11806902
364	3.63	0.31762131	0.42511664	0.0191668	0.45219836	0.8965517	0.08269062	0.37081775	0.90860364	0.12603149	0.28150739	0.90059125	-0.025668705	0.37951147	0.90514618	-0.17667603	0.46703625	0.90364398	-0.11619059	0.42822787	1.2508549	-0.025705492	0.36002496	1.3182695	0.12340923	0.32380798	1.2677212	-0.22820613	0.41227478	1.2629486	0.076844574	0.42525879	1.2555129	-0.085796898	0.34501785	0.44109384	0.15600755	0.4387309	0.59986304	0.095664185	0.31273938	0.10213016	0.070491875	0.28895932	0.10000474	0.15102315	0.30809595	0.31120026	0.17204533	0.24401003	0.032334564	0.091925209	0.44951584	0.045104706	0.11806834
365	3.64	0.31755841	0.42505527	0.019162889	0.45183051	0.89657416	0.082783272	0.37040518	0.90858392	0.1260623	0.28122128	0.90053925	-0.025732515	0.37932275	0.90512726	-0.17664198	0.46680667	0.90366321	-0.11609087	0.42800723	1.2508016	-0.025625277	0.35974109	1.3182689	0.12343919	0.32386044	1.2676334	-0.2279527	0.41198236	1.2629163	0.076913048	0.42505472	1.2554958	-0.085697372	0.34484778	0.44105435	0.15599487	0.4384834	0.59989282	0.095737045	0.31271075	0.10208482	0.070491219	0.28891467	0.099958313	0.15101546	0.30799225	0.31116223	0.17204883	0.24399973	0.032304527	0.091925476	0.44952197	0.045089588	0.11806504
